<?xml version="1.0" encoding="UTF-8"?>
<svg xmlns="http://www.w3.org/2000/svg" viewBox="0 0 448 512">
  <path fill="#339933" d="M224 508c-6.7 0-13.5-1.8-19.4-5.2l-69.8-40.5c-6.9-4-11.1-11.4-11.1-19.6v-38.9c0-8.1 4.2-15.5 11.1-19.6l69.8-40.5c5.9-3.4 12.7-5.2 19.4-5.2s13.5 1.8 19.4 5.2l69.8 40.5c6.9 4 11.1 11.4 11.1 19.6v38.9c0 8.1-4.2 15.5-11.1 19.6l-69.8 40.5c-5.9 3.4-12.7 5.2-19.4 5.2zm-69.8-90.3v38.9l69.8 40.5 69.8-40.5v-38.9l-69.8-40.5-69.8 40.5zm-69.8-40.5c-6.9 4-11.1 11.4-11.1 19.6v38.9c0 8.1 4.2 15.5 11.1 19.6l69.8 40.5c5.9 3.4 12.7 5.2 19.4 5.2s13.5-1.8 19.4-5.2l69.8-40.5c6.9-4 11.1-11.4 11.1-19.6v-38.9c0-8.1-4.2-15.5-11.1-19.6l-69.8-40.5c-5.9-3.4-12.7-5.2-19.4-5.2s-13.5 1.8-19.4 5.2l-69.8 40.5zm0 0c-6.9 4-11.1 11.4-11.1 19.6v38.9c0 8.1 4.2 15.5 11.1 19.6l69.8 40.5c5.9 3.4 12.7 5.2 19.4 5.2s13.5-1.8 19.4-5.2l69.8-40.5c6.9-4 11.1-11.4 11.1-19.6v-38.9c0-8.1-4.2-15.5-11.1-19.6l-69.8-40.5c-5.9-3.4-12.7-5.2-19.4-5.2s-13.5 1.8-19.4 5.2l-69.8 40.5z"/>
</svg> 