<?xml version="1.0" encoding="UTF-8"?>
<svg width="32" height="32" viewBox="0 0 32 32" fill="none" xmlns="http://www.w3.org/2000/svg">
  <!-- Background circle -->
  <circle cx="16" cy="16" r="15" fill="#000000" stroke="#FFFFFF" stroke-width="2"/>
  <!-- Letter B stylized -->
  <path d="M12 8h8c2.2 0 4 1.8 4 4s-1.8 4-4 4h-4v4h4c2.2 0 4 1.8 4 4s-1.8 4-4 4h-8V8z" fill="#FFFFFF"/>
  <path d="M12 12h4c1.1 0 2 .9 2 2s-.9 2-2 2h-4v-4z" fill="#000000"/>
  <path d="M12 20h4c1.1 0 2 .9 2 2s-.9 2-2 2h-4v-4z" fill="#000000"/>
</svg> 