<?xml version="1.0" encoding="UTF-8"?>
<svg xmlns="http://www.w3.org/2000/svg" viewBox="0 0 448 512"><!--!Font Awesome Free 6.5.2 by @fontawesome - https://fontawesome.com License - https://fontawesome.com/license/free Copyright 2024 Fonticons, Inc.--><path fill="currentColor" d="M224.1 141c-63.6 0-114.9 51.3-114.9 114.9s51.3 114.9 114.9 114.9S339 319.5 339 255.9 287.7 141 224.1 141zm0 189.6c-41.1 0-74.7-33.5-74.7-74.7s33.5-74.7 74.7-74.7 74.7 33.5 74.7 74.7-33.6 74.7-74.7 74.7zm146.4-194.3c0-14.9-12-26.8-26.8-26.8-14.9 0-26.8 12-26.8 26.8s12 26.8 26.8 26.8 26.8-12 26.8-26.8zm76.1 27.2c-1.7-35.9-9.9-67.7-36.2-93.9-26.2-26.2-58-34.4-93.9-36.2-35.9-2.3-107.5-2.3-143.4 0-35.9 1.7-67.7 9.9-93.9 36.2-26.2 26.2-34.4 58-36.2 93.9-2.3 35.9-2.3 107.5 0 143.4 1.7 35.9 9.9 67.7 36.2 93.9 26.2 26.2 58 34.4 93.9 36.2 35.9 2.3 107.5 2.3 143.4 0 35.9-1.7 67.7-9.9 93.9-36.2 26.2-26.2 34.4-58 36.2-93.9 2.3-35.9 2.3-107.5 0-143.4zm-64.4-9.1c3.9-24.7 11.1-48.9 32.7-70.5s45.8-28.8 70.5-32.7c21.5-3.9 66.2-3.9 87.6 0 24.7 3.9 48.9 11.1 70.5 32.7s28.8 45.8 32.7 70.5c3.9 21.5 3.9 66.2 0 87.6-3.9 24.7-11.1 48.9-32.7 70.5s-45.8 28.8-70.5 32.7c-21.5 3.9-66.2 3.9-87.6 0-24.7-3.9-48.9-11.1-70.5-32.7s-28.8-45.8-32.7-70.5c-3.9-21.5-3.9-66.1 0-87.6z"/></svg> 